<mxfile host="app.diagrams.net" modified="2024-03-18T18:44:10.791Z" agent="Mozilla/5.0 (Macintosh; Intel Mac OS X 10_15_7) AppleWebKit/537.36 (KHTML, like Gecko) Chrome/122.0.0.0 Safari/537.36" etag="lPnYJSXsRqdzEekTG0A8" version="24.0.6" type="github">
  <diagram name="Page-1" id="sh8ykiF0knSkxBJXVvDX">
    <mxGraphModel dx="1472" dy="1003" grid="1" gridSize="10" guides="1" tooltips="1" connect="1" arrows="1" fold="1" page="1" pageScale="1" pageWidth="850" pageHeight="1100" math="0" shadow="0">
      <root>
        <mxCell id="0" />
        <mxCell id="1" parent="0" />
        <mxCell id="buvXnp-66d20s14vqZSp-1" value="" style="rounded=1;whiteSpace=wrap;html=1;" vertex="1" parent="1">
          <mxGeometry x="10" y="383" width="120" height="60" as="geometry" />
        </mxCell>
        <mxCell id="buvXnp-66d20s14vqZSp-2" value="" style="shape=cylinder3;whiteSpace=wrap;html=1;boundedLbl=1;backgroundOutline=1;size=15;" vertex="1" parent="1">
          <mxGeometry x="510" y="170" width="60" height="80" as="geometry" />
        </mxCell>
        <mxCell id="buvXnp-66d20s14vqZSp-3" value="" style="shape=cylinder3;whiteSpace=wrap;html=1;boundedLbl=1;backgroundOutline=1;size=15;" vertex="1" parent="1">
          <mxGeometry x="600" y="170" width="60" height="80" as="geometry" />
        </mxCell>
        <mxCell id="buvXnp-66d20s14vqZSp-4" value="" style="shape=cylinder3;whiteSpace=wrap;html=1;boundedLbl=1;backgroundOutline=1;size=15;" vertex="1" parent="1">
          <mxGeometry x="690" y="170" width="60" height="80" as="geometry" />
        </mxCell>
        <mxCell id="buvXnp-66d20s14vqZSp-5" value="" style="shape=cylinder3;whiteSpace=wrap;html=1;boundedLbl=1;backgroundOutline=1;size=15;" vertex="1" parent="1">
          <mxGeometry x="780" y="170" width="60" height="80" as="geometry" />
        </mxCell>
        <mxCell id="buvXnp-66d20s14vqZSp-6" value="" style="shape=cylinder3;whiteSpace=wrap;html=1;boundedLbl=1;backgroundOutline=1;size=15;" vertex="1" parent="1">
          <mxGeometry x="420" y="170" width="60" height="80" as="geometry" />
        </mxCell>
        <mxCell id="buvXnp-66d20s14vqZSp-7" value="" style="rounded=1;whiteSpace=wrap;html=1;" vertex="1" parent="1">
          <mxGeometry x="20" y="393" width="120" height="60" as="geometry" />
        </mxCell>
        <mxCell id="buvXnp-66d20s14vqZSp-8" value="" style="rounded=1;whiteSpace=wrap;html=1;" vertex="1" parent="1">
          <mxGeometry x="30" y="403" width="120" height="60" as="geometry" />
        </mxCell>
        <mxCell id="buvXnp-66d20s14vqZSp-9" value="" style="rounded=1;whiteSpace=wrap;html=1;" vertex="1" parent="1">
          <mxGeometry x="20" y="638" width="120" height="60" as="geometry" />
        </mxCell>
        <mxCell id="buvXnp-66d20s14vqZSp-10" value="" style="rounded=1;whiteSpace=wrap;html=1;" vertex="1" parent="1">
          <mxGeometry x="30" y="648" width="120" height="60" as="geometry" />
        </mxCell>
        <mxCell id="buvXnp-66d20s14vqZSp-11" value="" style="rounded=1;whiteSpace=wrap;html=1;" vertex="1" parent="1">
          <mxGeometry x="40" y="658" width="120" height="60" as="geometry" />
        </mxCell>
        <mxCell id="buvXnp-66d20s14vqZSp-12" value="" style="shape=cylinder3;whiteSpace=wrap;html=1;boundedLbl=1;backgroundOutline=1;size=15;rotation=90;" vertex="1" parent="1">
          <mxGeometry x="320" y="340" width="60" height="160" as="geometry" />
        </mxCell>
        <mxCell id="buvXnp-66d20s14vqZSp-13" value="" style="shape=cylinder3;whiteSpace=wrap;html=1;boundedLbl=1;backgroundOutline=1;size=15;rotation=90;" vertex="1" parent="1">
          <mxGeometry x="320" y="430" width="60" height="160" as="geometry" />
        </mxCell>
        <mxCell id="buvXnp-66d20s14vqZSp-14" value="" style="shape=cylinder3;whiteSpace=wrap;html=1;boundedLbl=1;backgroundOutline=1;size=15;rotation=90;" vertex="1" parent="1">
          <mxGeometry x="320" y="520" width="60" height="160" as="geometry" />
        </mxCell>
        <mxCell id="buvXnp-66d20s14vqZSp-15" value="" style="shape=cylinder3;whiteSpace=wrap;html=1;boundedLbl=1;backgroundOutline=1;size=15;rotation=90;" vertex="1" parent="1">
          <mxGeometry x="320" y="600" width="60" height="160" as="geometry" />
        </mxCell>
        <mxCell id="buvXnp-66d20s14vqZSp-16" value="" style="rounded=1;whiteSpace=wrap;html=1;" vertex="1" parent="1">
          <mxGeometry x="570" y="380" width="120" height="60" as="geometry" />
        </mxCell>
        <mxCell id="buvXnp-66d20s14vqZSp-17" value="" style="rounded=1;whiteSpace=wrap;html=1;" vertex="1" parent="1">
          <mxGeometry x="580" y="390" width="120" height="60" as="geometry" />
        </mxCell>
        <mxCell id="buvXnp-66d20s14vqZSp-18" value="" style="rounded=1;whiteSpace=wrap;html=1;" vertex="1" parent="1">
          <mxGeometry x="590" y="400" width="120" height="60" as="geometry" />
        </mxCell>
        <mxCell id="buvXnp-66d20s14vqZSp-19" value="" style="rounded=1;whiteSpace=wrap;html=1;" vertex="1" parent="1">
          <mxGeometry x="570" y="510" width="120" height="60" as="geometry" />
        </mxCell>
        <mxCell id="buvXnp-66d20s14vqZSp-20" value="" style="rounded=1;whiteSpace=wrap;html=1;" vertex="1" parent="1">
          <mxGeometry x="580" y="520" width="120" height="60" as="geometry" />
        </mxCell>
        <mxCell id="buvXnp-66d20s14vqZSp-21" value="" style="rounded=1;whiteSpace=wrap;html=1;" vertex="1" parent="1">
          <mxGeometry x="590" y="530" width="120" height="60" as="geometry" />
        </mxCell>
        <mxCell id="buvXnp-66d20s14vqZSp-22" value="" style="rounded=1;whiteSpace=wrap;html=1;" vertex="1" parent="1">
          <mxGeometry x="570" y="640" width="120" height="60" as="geometry" />
        </mxCell>
        <mxCell id="buvXnp-66d20s14vqZSp-23" value="" style="rounded=1;whiteSpace=wrap;html=1;" vertex="1" parent="1">
          <mxGeometry x="580" y="650" width="120" height="60" as="geometry" />
        </mxCell>
        <mxCell id="buvXnp-66d20s14vqZSp-24" value="" style="rounded=1;whiteSpace=wrap;html=1;" vertex="1" parent="1">
          <mxGeometry x="590" y="660" width="120" height="60" as="geometry" />
        </mxCell>
        <mxCell id="buvXnp-66d20s14vqZSp-25" value="" style="shape=cylinder3;whiteSpace=wrap;html=1;boundedLbl=1;backgroundOutline=1;size=15;" vertex="1" parent="1">
          <mxGeometry x="860" y="360" width="60" height="80" as="geometry" />
        </mxCell>
        <mxCell id="buvXnp-66d20s14vqZSp-26" value="" style="shape=cylinder3;whiteSpace=wrap;html=1;boundedLbl=1;backgroundOutline=1;size=15;" vertex="1" parent="1">
          <mxGeometry x="860" y="460" width="60" height="80" as="geometry" />
        </mxCell>
        <mxCell id="buvXnp-66d20s14vqZSp-27" value="" style="shape=cylinder3;whiteSpace=wrap;html=1;boundedLbl=1;backgroundOutline=1;size=15;" vertex="1" parent="1">
          <mxGeometry x="860" y="560" width="60" height="80" as="geometry" />
        </mxCell>
        <mxCell id="buvXnp-66d20s14vqZSp-29" value="" style="shape=cylinder3;whiteSpace=wrap;html=1;boundedLbl=1;backgroundOutline=1;size=15;rotation=90;" vertex="1" parent="1">
          <mxGeometry x="1260" y="320" width="60" height="160" as="geometry" />
        </mxCell>
        <mxCell id="buvXnp-66d20s14vqZSp-30" value="" style="shape=cylinder3;whiteSpace=wrap;html=1;boundedLbl=1;backgroundOutline=1;size=15;rotation=90;" vertex="1" parent="1">
          <mxGeometry x="1260" y="393" width="60" height="160" as="geometry" />
        </mxCell>
        <mxCell id="buvXnp-66d20s14vqZSp-31" value="" style="shape=cylinder3;whiteSpace=wrap;html=1;boundedLbl=1;backgroundOutline=1;size=15;rotation=90;" vertex="1" parent="1">
          <mxGeometry x="1260" y="470" width="60" height="160" as="geometry" />
        </mxCell>
        <mxCell id="buvXnp-66d20s14vqZSp-32" value="" style="shape=cylinder3;whiteSpace=wrap;html=1;boundedLbl=1;backgroundOutline=1;size=15;" vertex="1" parent="1">
          <mxGeometry x="860" y="660" width="60" height="80" as="geometry" />
        </mxCell>
        <mxCell id="buvXnp-66d20s14vqZSp-33" value="" style="rounded=1;whiteSpace=wrap;html=1;" vertex="1" parent="1">
          <mxGeometry x="960" y="370" width="120" height="60" as="geometry" />
        </mxCell>
        <mxCell id="buvXnp-66d20s14vqZSp-34" value="" style="rounded=1;whiteSpace=wrap;html=1;" vertex="1" parent="1">
          <mxGeometry x="970" y="380" width="120" height="60" as="geometry" />
        </mxCell>
        <mxCell id="buvXnp-66d20s14vqZSp-35" value="" style="rounded=1;whiteSpace=wrap;html=1;" vertex="1" parent="1">
          <mxGeometry x="980" y="390" width="120" height="60" as="geometry" />
        </mxCell>
        <mxCell id="buvXnp-66d20s14vqZSp-36" value="" style="rounded=1;whiteSpace=wrap;html=1;" vertex="1" parent="1">
          <mxGeometry x="960" y="463" width="120" height="60" as="geometry" />
        </mxCell>
        <mxCell id="buvXnp-66d20s14vqZSp-37" value="" style="rounded=1;whiteSpace=wrap;html=1;" vertex="1" parent="1">
          <mxGeometry x="970" y="473" width="120" height="60" as="geometry" />
        </mxCell>
        <mxCell id="buvXnp-66d20s14vqZSp-38" value="" style="rounded=1;whiteSpace=wrap;html=1;" vertex="1" parent="1">
          <mxGeometry x="980" y="483" width="120" height="60" as="geometry" />
        </mxCell>
        <mxCell id="buvXnp-66d20s14vqZSp-39" value="" style="rounded=1;whiteSpace=wrap;html=1;" vertex="1" parent="1">
          <mxGeometry x="960" y="570" width="120" height="60" as="geometry" />
        </mxCell>
        <mxCell id="buvXnp-66d20s14vqZSp-40" value="" style="rounded=1;whiteSpace=wrap;html=1;" vertex="1" parent="1">
          <mxGeometry x="970" y="580" width="120" height="60" as="geometry" />
        </mxCell>
        <mxCell id="buvXnp-66d20s14vqZSp-41" value="" style="rounded=1;whiteSpace=wrap;html=1;" vertex="1" parent="1">
          <mxGeometry x="980" y="590" width="120" height="60" as="geometry" />
        </mxCell>
        <mxCell id="buvXnp-66d20s14vqZSp-42" value="" style="rounded=1;whiteSpace=wrap;html=1;" vertex="1" parent="1">
          <mxGeometry x="960" y="670" width="120" height="60" as="geometry" />
        </mxCell>
        <mxCell id="buvXnp-66d20s14vqZSp-43" value="" style="rounded=1;whiteSpace=wrap;html=1;" vertex="1" parent="1">
          <mxGeometry x="970" y="680" width="120" height="60" as="geometry" />
        </mxCell>
        <mxCell id="buvXnp-66d20s14vqZSp-44" value="" style="rounded=1;whiteSpace=wrap;html=1;" vertex="1" parent="1">
          <mxGeometry x="980" y="690" width="120" height="60" as="geometry" />
        </mxCell>
        <mxCell id="buvXnp-66d20s14vqZSp-45" value="" style="shape=cylinder3;whiteSpace=wrap;html=1;boundedLbl=1;backgroundOutline=1;size=15;" vertex="1" parent="1">
          <mxGeometry x="610" y="840" width="60" height="80" as="geometry" />
        </mxCell>
      </root>
    </mxGraphModel>
  </diagram>
</mxfile>
